<svg version="1.1" viewBox="0.0 0.0 64.0 64.0" fill="none" stroke="none" stroke-linecap="square" stroke-miterlimit="10" xmlns:xlink="http://www.w3.org/1999/xlink" xmlns="http://www.w3.org/2000/svg"><clipPath id="p.0"><path d="m0 0l64.0 0l0 64.0l-64.0 0l0 -64.0z" clip-rule="nonzero"/></clipPath><g clip-path="url(#p.0)"><path fill="#000000" fill-opacity="0.0" d="m0 0l64.0 0l0 64.0l-64.0 0z" fill-rule="evenodd"/><path fill="#ffffff" d="m13.074218 24.820412l7.242297 7.1653385l-7.242297 7.1653385l-11.718284 -2.7369156l0 -8.856846z" fill-rule="evenodd"/><path stroke="#000000" stroke-width="2.0" stroke-linejoin="round" stroke-linecap="butt" d="m13.074218 24.820412l7.242297 7.1653385l-7.242297 7.1653385l-11.718284 -2.7369156l0 -8.856846z" fill-rule="evenodd"/><path fill="#ffffff" d="m16.16526 45.35458l9.510899 -3.0104256l2.2686024 10.223011l-8.108826 9.32859l-7.2801332 -4.4576225z" fill-rule="evenodd"/><path stroke="#000000" stroke-width="2.0" stroke-linejoin="round" stroke-linecap="butt" d="m16.16526 45.35458l9.510899 -3.0104256l2.2686024 10.223011l-8.108826 9.32859l-7.2801332 -4.4576225z" fill-rule="evenodd"/><path fill="#ffffff" d="m36.31173 52.52713l2.2686005 -10.20726l9.510902 3.0261726l3.609455 12.077538l-7.2801323 4.438156z" fill-rule="evenodd"/><path stroke="#000000" stroke-width="2.0" stroke-linejoin="round" stroke-linecap="butt" d="m36.31173 52.52713l2.2686005 -10.20726l9.510902 3.0261726l3.609455 12.077538l-7.2801323 4.438156z" fill-rule="evenodd"/><path fill="#ffffff" d="m50.9259 39.165455l-7.242298 -7.1653404l7.242298 -7.1653385l11.718285 2.7369156l0 8.856848z" fill-rule="evenodd"/><path stroke="#000000" stroke-width="2.0" stroke-linejoin="round" stroke-linecap="butt" d="m50.9259 39.165455l-7.242298 -7.1653404l7.242298 -7.1653385l11.718285 2.7369156l0 8.856848z" fill-rule="evenodd"/><path fill="#ffffff" d="m48.08555 18.645426l-9.510902 3.0104256l-2.2686005 -10.223009l8.108826 -9.328593l7.2801323 4.4576216z" fill-rule="evenodd"/><path stroke="#000000" stroke-width="2.0" stroke-linejoin="round" stroke-linecap="butt" d="m48.08555 18.645426l-9.510902 3.0104256l-2.2686005 -10.223009l8.108826 -9.328593l7.2801323 4.4576216z" fill-rule="evenodd"/><path fill="#ffffff" d="m27.936766 11.473032l-2.2686024 10.20726l-9.510899 -3.0261726l-3.609458 -12.077539l7.2801332 -4.438156z" fill-rule="evenodd"/><path stroke="#000000" stroke-width="2.0" stroke-linejoin="round" stroke-linecap="butt" d="m27.936766 11.473032l-2.2686024 10.20726l-9.510899 -3.0261726l-3.609458 -12.077539l7.2801332 -4.438156z" fill-rule="evenodd"/><path fill="#ffffff" d="m9.635635 31.997168l10.212599 -20.425186l24.267717 0l10.212597 20.425186l-10.212597 20.425188l-24.267717 0z" fill-rule="evenodd"/><path stroke="#000000" stroke-width="2.0" stroke-linejoin="round" stroke-linecap="butt" d="m9.635635 31.997168l10.212599 -20.425186l24.267717 0l10.212597 20.425186l-10.212597 20.425188l-24.267717 0z" fill-rule="evenodd"/><path fill="#ffffff" d="m24.564571 31.989325l0 0c0 -4.3313046 3.327898 -7.8425198 7.433071 -7.8425198l0 0c1.9713707 0 3.8620033 0.8262634 5.255974 2.29702c1.3939705 1.4707584 2.1770973 3.4655342 2.1770973 5.5455l0 0c0 4.3313046 -3.3279 7.8425198 -7.433071 7.8425198l0 0c-4.105173 0 -7.433071 -3.5112152 -7.433071 -7.8425198z" fill-rule="evenodd"/><path stroke="#000000" stroke-width="2.0" stroke-linejoin="round" stroke-linecap="butt" d="m24.564571 31.989325l0 0c0 -4.3313046 3.327898 -7.8425198 7.433071 -7.8425198l0 0c1.9713707 0 3.8620033 0.8262634 5.255974 2.29702c1.3939705 1.4707584 2.1770973 3.4655342 2.1770973 5.5455l0 0c0 4.3313046 -3.3279 7.8425198 -7.433071 7.8425198l0 0c-4.105173 0 -7.433071 -3.5112152 -7.433071 -7.8425198z" fill-rule="evenodd"/></g></svg>