<svg version="1.1" viewBox="0.0 0.0 64.0 64.0" fill="none" stroke="none" stroke-linecap="square" stroke-miterlimit="10" xmlns:xlink="http://www.w3.org/1999/xlink" xmlns="http://www.w3.org/2000/svg"><clipPath id="p.0"><path d="m0 0l64.0 0l0 64.0l-64.0 0l0 -64.0z" clip-rule="nonzero"/></clipPath><g clip-path="url(#p.0)"><path fill="#000000" fill-opacity="0.0" d="m0 0l64.0 0l0 64.0l-64.0 0z" fill-rule="evenodd"/><path fill="#ffffff" d="m9.635635 31.997168l10.212599 -20.425186l24.267717 0l10.212597 20.425186l-10.212597 20.425188l-24.267717 0z" fill-rule="evenodd"/><path stroke="#000000" stroke-width="2.0" stroke-linejoin="round" stroke-linecap="butt" d="m9.635635 31.997168l10.212599 -20.425186l24.267717 0l10.212597 20.425186l-10.212597 20.425188l-24.267717 0z" fill-rule="evenodd"/><path fill="#ffffff" d="m24.564571 31.989325l0 0c0 -4.3313046 3.327898 -7.8425198 7.433071 -7.8425198l0 0c1.9713707 0 3.8620033 0.8262634 5.255974 2.29702c1.3939705 1.4707584 2.1770973 3.4655342 2.1770973 5.5455l0 0c0 4.3313046 -3.3279 7.8425198 -7.433071 7.8425198l0 0c-4.105173 0 -7.433071 -3.5112152 -7.433071 -7.8425198z" fill-rule="evenodd"/><path stroke="#000000" stroke-width="2.0" stroke-linejoin="round" stroke-linecap="butt" d="m24.564571 31.989325l0 0c0 -4.3313046 3.327898 -7.8425198 7.433071 -7.8425198l0 0c1.9713707 0 3.8620033 0.8262634 5.255974 2.29702c1.3939705 1.4707584 2.1770973 3.4655342 2.1770973 5.5455l0 0c0 4.3313046 -3.3279 7.8425198 -7.433071 7.8425198l0 0c-4.105173 0 -7.433071 -3.5112152 -7.433071 -7.8425198z" fill-rule="evenodd"/></g></svg>